<svg version="1.1"
	 xmlns="http://www.w3.org/2000/svg" xmlns:xlink="http://www.w3.org/1999/xlink" xmlns:a="http://ns.adobe.com/AdobeSVGViewerExtensions/3.0/"
	 x="0px" y="0px" width="140px" height="100px" viewBox="0 0 140 100" style="overflow:scroll;enable-background:new 0 0 140 100;"
	 xml:space="preserve">
<defs>
</defs>
<g id="XMLID_26_">
	<path id="XMLID_52_" style="fill:#212622;" d="M-0.1,17v76.6c0,3.8,3.1,6.9,6.9,6.9h126c3.8,0,6.9-3.1,6.9-6.9V17H-0.1z"/>
	<path id="XMLID_49_" style="fill:#FBFDFC;" d="M139.7,17V6.6c0-3.8-3.1-6.9-6.9-6.9H6.8C3-0.3-0.1,2.8-0.1,6.6V17H139.7z"/>
	<circle id="XMLID_45_" style="fill:#FF2383;" cx="11.2" cy="8.4" r="4.1"/>
	<circle id="XMLID_42_" style="fill:#D4A825;" cx="24.1" cy="8.4" r="4.1"/>
	<circle id="XMLID_38_" style="fill:#7E6EC6;" cx="37.9" cy="8.4" r="4.1"/>
	<g id="XMLID_29_">
		<rect id="XMLID_37_" x="35" y="28" style="fill:#74CDFC;" width="37.8" height="7.4"/>
		<rect id="XMLID_35_" x="80.3" y="28" style="fill:#F2FF94;" width="17" height="7.4"/>
		<rect id="XMLID_34_" x="47.6" y="41.9" style="fill:#DA0066;" width="49.7" height="7.1"/>
		<rect id="XMLID_32_" x="59" y="55.8" style="fill:#74CDFC;" width="38.3" height="7.1"/>
		<rect id="XMLID_31_" x="32.1" y="69.4" style="fill:#DA0066;" width="33.3" height="7.1"/>
		<rect id="XMLID_30_" x="63.2" y="82.9" style="fill:#A251EE;" width="33.3" height="7.1"/>
	</g>
</g>
</svg>
