<?xml version="1.0" encoding="utf-8"?>
<!-- Generator: Adobe Illustrator 19.0.0, SVG Export Plug-In . SVG Version: 6.00 Build 0)  -->
<svg version="1.1" id="Capa_1" xmlns="http://www.w3.org/2000/svg" xmlns:xlink="http://www.w3.org/1999/xlink" x="0px" y="0px"
	 width="200px" height="200px" viewBox="0 0 200 200" enable-background="new 0 0 200 200" xml:space="preserve">
<g id="XMLID_523_">
	<g id="XMLID_524_">
		<path id="XMLID_530_" fill="#3D3D3B" d="M186.6,169.3H13.8c-3.2,0-5.7-2.6-5.7-5.7v-128c0-3.2,2.6-5.7,5.7-5.7h172.8
			c3.2,0,5.7,2.6,5.7,5.7v128C192.4,166.7,189.8,169.3,186.6,169.3z"/>
		<path id="XMLID_529_" fill="#74CDFC" d="M107.2,68.8H25.4c-2.7,0-4.9-2.2-4.9-4.9v-8.1c0-2.7,2.2-4.9,4.9-4.9h81.8
			c2.7,0,4.9,2.2,4.9,4.9v8.1C112.1,66.6,109.9,68.8,107.2,68.8z"/>
		<path id="XMLID_528_" fill="#F2FF94" d="M168.1,68.8h-34.5c-1.8,0-3.3-1.5-3.3-3.3V54.2c0-1.8,1.5-3.3,3.3-3.3h34.5
			c1.8,0,3.3,1.5,3.3,3.3v11.4C171.3,67.3,169.9,68.8,168.1,68.8z"/>
		<path id="XMLID_527_" fill="#DA0066" d="M165.6,106.2H56.8c-3.2,0-5.7-2.6-5.7-5.7v-5.7c0-3.2,2.6-5.7,5.7-5.7h108.9
			c3.2,0,5.7,2.6,5.7,5.7v5.7C171.3,103.7,168.8,106.2,165.6,106.2z"/>
		<path id="XMLID_526_" fill="#74CDFC" d="M166.2,134.9H83.9c-2.8,0-5.2-2.3-5.2-5.2v-5.9c0-2.8,2.3-5.2,5.2-5.2h82.3
			c2.8,0,5.2,2.3,5.2,5.2v5.9C171.3,132.6,169,134.9,166.2,134.9z"/>
		<path id="XMLID_525_" fill="#DA0066" d="M89.2,158.8H25.3c-2.6,0-4.8-2.2-4.8-4.8v-3.8c0-2.6,2.2-4.8,4.8-4.8h63.9
			c2.6,0,4.8,2.2,4.8,4.8v3.8C94,156.6,91.8,158.8,89.2,158.8z"/>
	</g>
</g>
</svg>
