<?xml version="1.0" encoding="utf-8"?>
<!-- Generator: Adobe Illustrator 19.0.0, SVG Export Plug-In . SVG Version: 6.00 Build 0)  -->
<svg version="1.1" id="Capa_1" xmlns="http://www.w3.org/2000/svg" xmlns:xlink="http://www.w3.org/1999/xlink" x="0px" y="0px"
	 viewBox="19 0 237 200" style="enable-background:new 19 0 237 200;" xml:space="preserve">
<style type="text/css">
	.st0{fill:#7C7C7C;}
</style>
<g id="XMLID_163_">
	<g id="XMLID_170_">
		
			<rect id="XMLID_171_" x="218.4" y="40.6" transform="matrix(-0.7792 -0.6267 0.6267 -0.7792 381.3125 230.5202)" class="st0" width="25.8" height="15"/>
	</g>
	<g id="XMLID_168_">
		
			<rect id="XMLID_169_" x="181.4" y="45.3" transform="matrix(-0.7792 -0.6267 0.6267 -0.7792 281.8705 291.4688)" class="st0" width="21.7" height="101.6"/>
	</g>
	<g id="XMLID_166_">
		<polygon id="XMLID_167_" class="st0" points="166.9,144.5 150,130.9 151.7,146.1 		"/>
	</g>
	<g id="XMLID_164_">
		<path id="XMLID_165_" class="st0" d="M120.8,149.8l-20-25.2l-19.2,24.2L52.8,118c-8.3,12.4-19.7,29.9-20.4,31.4l-1.6-0.3h-2.4
			c0-2,0-1.7,22.4-35l1.5-2.4l29.1,31l19.4-24.7l18.6,23.5l8.2-22.8l24.4,28l-3.1,2.7l-19.7-22.7L120.8,149.8z"/>
	</g>
</g>
<polygon id="XMLID_14_" class="st0" points="80,61.9 83.6,73 95.3,73 85.8,79.9 89.4,91 80,84.1 70.6,91 74.2,79.9 64.7,73 76.4,73 
	"/>
<polygon id="XMLID_16_" class="st0" points="154,20.9 157.6,32 169.3,32 159.8,38.9 163.4,50 154,43.1 144.6,50 148.2,38.9 
	138.7,32 150.4,32 "/>
<polygon id="XMLID_17_" class="st0" points="139,76.9 142.6,88 154.3,88 144.8,94.9 148.4,106 139,99.1 129.6,106 133.2,94.9 
	123.7,88 135.4,88 "/>
</svg>
