<?xml version="1.0" encoding="utf-8"?>
<!-- Generator: Adobe Illustrator 19.0.0, SVG Export Plug-In . SVG Version: 6.00 Build 0)  -->
<svg version="1.1" id="Capa_1" xmlns="http://www.w3.org/2000/svg" xmlns:xlink="http://www.w3.org/1999/xlink" x="0px" y="0px"
	 viewBox="0 0 200 200" style="enable-background:new 0 0 200 200;" xml:space="preserve">
<style type="text/css">
	.st0{fill:#7C7C7C;}
</style>
<g id="XMLID_148_">
	<g id="XMLID_78_">
		<path id="XMLID_155_" class="st0" d="M148,171.4H10.1V33.5H148V171.4z M15.7,165.8h126.7V39.1H15.7V165.8z"/>
	</g>
	<g id="XMLID_79_">
		<path id="XMLID_96_" class="st0" d="M126.2,75H91.8v93.5H68.7V75H34.8V56.3h91.4V75z"/>
	</g>
	<polygon id="XMLID_149_" class="st0" points="196.7,61.4 182.1,36.3 167.6,61.4 179.3,61.4 179.3,143.2 167.6,143.2 182.1,168.3 
		196.7,143.2 185.1,143.2 185.1,61.4 	"/>
	<rect id="XMLID_150_" x="138" y="29" class="st0" width="14.4" height="14.4"/>
	<rect id="XMLID_156_" x="71.9" y="29" class="st0" width="14.4" height="14.4"/>
	<rect id="XMLID_152_" x="5.7" y="29" class="st0" width="14.4" height="14.4"/>
	<rect id="XMLID_153_" x="5.7" y="159.6" class="st0" width="14.4" height="14.4"/>
	<rect id="XMLID_154_" x="138" y="159.6" class="st0" width="14.4" height="14.4"/>
</g>
</svg>
