<?xml version="1.0" encoding="utf-8"?>
<!-- Generator: Adobe Illustrator 19.0.0, SVG Export Plug-In . SVG Version: 6.00 Build 0)  -->
<svg version="1.1" id="Capa_1" xmlns="http://www.w3.org/2000/svg" xmlns:xlink="http://www.w3.org/1999/xlink" x="0px" y="0px"
	 viewBox="0 0 200 200" style="enable-background:new 0 0 200 200;" xml:space="preserve">
<style type="text/css">
	.st0{fill:#7C7C7C;}
</style>
<path class="st0" d="M21.2,93.8c15.6,0,17.8-8.6,17.8-16.3c0-6.2-0.9-12.3-1.8-18.5c-0.9-6.2-1.8-12.1-1.8-18.2
	C35.4,20.6,48.6,12,67.3,12h4.6v12.1h-4c-13,0-17.4,7-17.4,18.9c0,5.1,0.7,10.3,1.5,15.6c0.9,5.5,1.5,10.8,1.5,16.7
	c0.2,14.1-5.9,21.1-15.8,23.7v0.4c9.9,2.4,16,9.9,15.8,24c0,5.9-0.7,11.4-1.5,16.7c-0.9,5.5-1.5,10.5-1.5,15.8
	c0,12.3,5.1,19.1,17.4,19.1h4v12.1h-4.6c-18.2,0-31.9-7.9-31.9-30.1c0-5.9,0.9-12.1,1.8-18c0.9-5.9,1.8-11.9,1.8-17.8
	c0-6.8-2.2-16.3-17.8-16.3V93.8z"/>
<path class="st0" d="M180.3,105c-15.6,0-17.8,9.4-17.8,16.3c0,5.9,0.9,11.9,1.8,17.8c0.9,5.9,1.8,12.1,1.8,18
	c0,22.2-13.8,30.1-31.9,30.1h-4.6v-12.1h3.7c12.3-0.2,17.6-6.8,17.6-19.1c0-5.3-0.9-10.3-1.5-15.8c-0.9-5.3-1.8-10.8-1.8-16.7
	c0-14.1,6.2-21.5,15.8-24v-0.4c-9.7-2.6-15.8-9.7-15.8-23.7c0-5.9,0.9-11.2,1.8-16.7c0.7-5.3,1.5-10.5,1.5-15.6
	c0-11.9-4.6-18.7-17.4-18.9h-4V12h4.4c18.7,0,32.1,8.6,32.1,28.8c0,6.2-0.9,12.1-1.8,18.2c-0.9,6.2-1.8,12.3-1.8,18.5
	c0,7.7,2.2,16.3,17.8,16.3V105z"/>
</svg>
