<?xml version="1.0" encoding="utf-8"?>
<!-- Generator: Adobe Illustrator 19.0.0, SVG Export Plug-In . SVG Version: 6.00 Build 0)  -->
<svg version="1.1" xmlns="http://www.w3.org/2000/svg" xmlns:xlink="http://www.w3.org/1999/xlink" x="0px" y="0px"
	 viewBox="0 0 200 200" style="enable-background:new 0 0 200 200;" xml:space="preserve">
<style type="text/css">
	.st0{display:none;}
	.st1{display:inline;opacity:0.49;}
	.st2{fill:#E2CD00;}
</style>
<g id="Capa_1" class="st0">
	<circle id="XMLID_1_" class="st1" cx="100.1" cy="100" r="98.6"/>
</g>
<g id="Capa_2">
	<path id="XMLID_3_" class="st2" d="M66.7,58.8h17.5v58.8c0,5.4-1.2,10.2-3.6,14.3s-5.8,7.3-10.1,9.6c-4.4,2.3-9.3,3.4-14.8,3.4
		c-9,0-16-2.3-21-6.9c-5-4.6-7.5-11-7.5-19.4h17.6c0,4.2,0.9,7.2,2.6,9.2c1.8,2,4.5,3,8.3,3c3.3,0,6-1.1,8-3.4c2-2.3,3-5.6,3-9.8
		V58.8z"/>
	<path id="XMLID_5_" class="st2" d="M143.2,121.5c0-3.3-1.2-5.8-3.5-7.6c-2.3-1.8-6.5-3.6-12.6-5.6c-6.1-2-10.9-3.9-14.4-5.8
		c-9.7-5.2-14.5-12.2-14.5-21.1c0-4.6,1.3-8.7,3.9-12.3c2.6-3.6,6.3-6.4,11.1-8.4c4.8-2,10.3-3,16.3-3c6.1,0,11.5,1.1,16.2,3.3
		c4.7,2.2,8.4,5.3,11.1,9.3c2.6,4,3.9,8.6,3.9,13.7h-17.5c0-3.9-1.2-6.9-3.7-9.1c-2.5-2.2-5.9-3.2-10.3-3.2c-4.3,0-7.6,0.9-10,2.7
		c-2.4,1.8-3.6,4.2-3.6,7.2c0,2.8,1.4,5.1,4.2,6.9c2.8,1.9,6.9,3.6,12.3,5.3c10,3,17.2,6.7,21.8,11.1c4.6,4.4,6.8,10,6.8,16.6
		c0,7.4-2.8,13.1-8.3,17.3c-5.6,4.2-13.1,6.3-22.5,6.3c-6.5,0-12.5-1.2-17.9-3.6c-5.4-2.4-9.5-5.7-12.3-9.8c-2.8-4.2-4.2-9-4.2-14.5
		h17.6c0,9.4,5.6,14.1,16.8,14.1c4.2,0,7.4-0.8,9.7-2.5C142.1,126.9,143.2,124.5,143.2,121.5z"/>
</g>
</svg>
