<?xml version="1.0" encoding="utf-8"?>
<!-- Generator: Adobe Illustrator 19.0.0, SVG Export Plug-In . SVG Version: 6.00 Build 0)  -->
<svg version="1.1" xmlns="http://www.w3.org/2000/svg" xmlns:xlink="http://www.w3.org/1999/xlink" x="0px" y="0px"
	 viewBox="0 0 100 100" style="enable-background:new 0 0 100 100;" xml:space="preserve">
<style type="text/css">
	.st0{display:none;}
	.st1{display:inline;}
	.st2{fill:#FFFFFF;}
</style>
<g id="IMAGE" class="st0">
	<g id="XMLID_169_" class="st1">
		<path id="XMLID_171_" d="M87.5,13.8H12.5c-3,0-5.4,2.4-5.4,5.4v55.9c0,3,2.4,5.4,5.4,5.4h74.9c3,0,5.4-2.4,5.4-5.4V19.2
			C92.9,16.2,90.5,13.8,87.5,13.8z M87.5,19.2v39.6l-10.7-9.8c-1.6-1.5-4.1-1.4-5.6,0.1L60.2,60.1L38.8,34.5c-1.6-1.9-4.6-2-6.2,0
			l-20,23.3V19.2H87.5z M64.3,33.5c0-4.1,3.4-7.5,7.5-7.5c4.1,0,7.5,3.4,7.5,7.5S75.9,41,71.8,41C67.7,41,64.3,37.7,64.3,33.5z"/>
	</g>
</g>
<g id="LINEAS">
</g>
<g id="Capa_2" class="st0">
</g>
<g id="CODE">
	<g id="XMLID_3_">
		<path id="XMLID_4_" class="st2" d="M36.3,79.1c-3.9-1.1-6.8-2.9-8.7-5.4c-1.9-2.5-2.9-5.8-2.9-9.9v-6.5c0-5.3-2.3-7.9-6.9-7.9
			v-4.7c4.6,0,6.9-2.6,6.9-7.9V30c0-4,1-7.2,2.9-9.7c1.9-2.5,4.8-4.2,8.7-5.3l1.2,3.8c-4.6,1.5-6.8,5.3-6.8,11.4v6.6
			c0,4.9-1.8,8.4-5.5,10.3c3.6,2,5.5,5.4,5.5,10.4v6.7c0.1,6,2.3,9.7,6.8,11.1L36.3,79.1z"/>
		<path id="XMLID_6_" class="st2" d="M61.5,75.4c4.4-1.4,6.7-5,6.9-10.8v-7.2c0-5,2-8.5,5.9-10.3c-3.9-1.8-5.9-5.2-5.9-10.3v-6.6
			c0-6.1-2.3-9.9-6.8-11.4l1.2-3.8c3.9,1.1,6.8,2.9,8.7,5.3c1.9,2.5,2.9,5.7,2.9,9.7v6.9c0,5.2,2.3,7.8,6.9,7.8v4.7
			c-4.6,0-6.9,2.6-6.9,7.9V64c0,4.1-1,7.4-3,9.8c-2,2.5-4.9,4.2-8.7,5.3L61.5,75.4z"/>
	</g>
</g>
</svg>
