<?xml version="1.0" encoding="utf-8"?>
<!-- Generator: Adobe Illustrator 19.0.0, SVG Export Plug-In . SVG Version: 6.00 Build 0)  -->
<svg version="1.1" xmlns="http://www.w3.org/2000/svg" xmlns:xlink="http://www.w3.org/1999/xlink" x="0px" y="0px"
	 viewBox="0 0 100 100" style="enable-background:new 0 0 100 100;" xml:space="preserve">
<style type="text/css">
	.st0{fill:#FFFFFF;}
	.st1{display:none;}
	.st2{display:inline;}
</style>
<g id="IMAGE">
	<g id="XMLID_169_">
		<path id="XMLID_171_" class="st0" d="M87.5,13.8H12.5c-3,0-5.4,2.4-5.4,5.4v55.9c0,3,2.4,5.4,5.4,5.4h74.9c3,0,5.4-2.4,5.4-5.4
			V19.2C92.9,16.2,90.5,13.8,87.5,13.8z M87.5,19.2v39.6l-10.7-9.8c-1.6-1.5-4.1-1.4-5.6,0.1L60.2,60.1L38.8,34.5
			c-1.6-1.9-4.6-2-6.2,0l-20,23.3V19.2H87.5z M64.3,33.5c0-4.1,3.4-7.5,7.5-7.5c4.1,0,7.5,3.4,7.5,7.5S75.9,41,71.8,41
			C67.7,41,64.3,37.7,64.3,33.5z"/>
	</g>
</g>
<g id="Capa_2" class="st1">
	<g id="XMLID_3_" class="st2">
		<path id="XMLID_4_" class="st0" d="M37.7,89.5c-4.7-1.3-8.3-3.5-10.7-6.6c-2.4-3.1-3.6-7.1-3.6-12.2v-8c0-6.5-2.8-9.8-8.5-9.8
			v-5.8c5.7,0,8.5-3.2,8.5-9.7V29c0.1-4.9,1.3-8.9,3.6-11.9c2.3-3,5.9-5.2,10.7-6.6l1.5,4.6c-5.6,1.8-8.4,6.5-8.4,14v8.1
			c0,6.1-2.2,10.3-6.7,12.7c4.5,2.4,6.7,6.7,6.7,12.8v8.3c0.1,7.4,2.9,12,8.4,13.7L37.7,89.5z"/>
		<path id="XMLID_6_" class="st0" d="M61.3,84.9c5.4-1.7,8.3-6.2,8.4-13.3v-8.9c0-6.2,2.4-10.4,7.3-12.7c-4.9-2.2-7.3-6.4-7.3-12.7
			v-8.2c0-7.6-2.8-12.2-8.4-14l1.5-4.6c4.7,1.3,8.3,3.5,10.7,6.5c2.4,3,3.6,7,3.6,12v8.4c0,6.4,2.8,9.6,8.5,9.6v5.8
			c-5.7,0-8.5,3.3-8.5,9.8v8.1c0,5-1.2,9.1-3.6,12.1c-2.4,3-6,5.2-10.7,6.6L61.3,84.9z"/>
	</g>
</g>
</svg>
