<?xml version="1.0" encoding="utf-8"?>
<!-- Generator: Adobe Illustrator 19.0.0, SVG Export Plug-In . SVG Version: 6.00 Build 0)  -->
<svg version="1.1" id="Capa_1" xmlns="http://www.w3.org/2000/svg" xmlns:xlink="http://www.w3.org/1999/xlink" x="0px" y="0px"
	 viewBox="-429 231 100 100" style="enable-background:new -429 231 100 100;" xml:space="preserve">
<style type="text/css">
	.st0{display:none;}
	.st1{display:inline;}
	.st2{fill:#FFFFFF;}
</style>
<g id="IMAGE" class="st0">
	<g id="XMLID_169_" class="st1">
		<path id="XMLID_171_" d="M-341.5,244.8h-75c-3,0-5.4,2.4-5.4,5.4v55.9c0,3,2.4,5.4,5.4,5.4h74.9c3,0,5.4-2.4,5.4-5.4v-55.9
			C-336.1,247.2-338.5,244.8-341.5,244.8z M-341.5,250.2v39.6l-10.7-9.8c-1.6-1.5-4.1-1.4-5.6,0.1l-11,11l-21.4-25.6
			c-1.6-1.9-4.6-2-6.2,0l-20,23.3v-38.6H-341.5z M-364.7,264.5c0-4.1,3.4-7.5,7.5-7.5c4.1,0,7.5,3.4,7.5,7.5s-3.4,7.5-7.5,7.5
			C-361.3,272-364.7,268.7-364.7,264.5z"/>
	</g>
</g>
<g id="LINEAS">
</g>
<g id="Capa_2" class="st0">
</g>
<g id="CODE" class="st0">
	<g id="XMLID_3_" class="st1">
		<path id="XMLID_4_" class="st2" d="M-392.7,310.1c-3.9-1.1-6.8-2.9-8.7-5.4s-2.9-5.8-2.9-9.9v-6.5c0-5.3-2.3-7.9-6.9-7.9v-4.7
			c4.6,0,6.9-2.6,6.9-7.9V261c0-4,1-7.2,2.9-9.7s4.8-4.2,8.7-5.3l1.2,3.8c-4.6,1.5-6.8,5.3-6.8,11.4v6.6c0,4.9-1.8,8.4-5.5,10.3
			c3.6,2,5.5,5.4,5.5,10.4v6.7c0.1,6,2.3,9.7,6.8,11.1L-392.7,310.1z"/>
		<path id="XMLID_6_" class="st2" d="M-367.5,306.4c4.4-1.4,6.7-5,6.9-10.8v-7.2c0-5,2-8.5,5.9-10.3c-3.9-1.8-5.9-5.2-5.9-10.3v-6.6
			c0-6.1-2.3-9.9-6.8-11.4l1.2-3.8c3.9,1.1,6.8,2.9,8.7,5.3c1.9,2.5,2.9,5.7,2.9,9.7v6.9c0,5.2,2.3,7.8,6.9,7.8v4.7
			c-4.6,0-6.9,2.6-6.9,7.9v6.7c0,4.1-1,7.4-3,9.8c-2,2.5-4.9,4.2-8.7,5.3L-367.5,306.4z"/>
	</g>
</g>
<g id="Capa_5">
	<g id="XMLID_352_">
		<path id="XMLID_356_" class="st2" d="M-352.5,309.7h-5.4v-62.6h5.4V309.7z"/>
	</g>
</g>
<g>
	<path class="st2" d="M-391.1,260.5h-15.6v-5.6h38v5.6h-15.7v45.7h-6.7V260.5z"/>
</g>
</svg>
