<?xml version="1.0" encoding="utf-8"?>
<!-- Generator: Adobe Illustrator 19.0.0, SVG Export Plug-In . SVG Version: 6.00 Build 0)  -->
<svg version="1.1" id="Capa_1" xmlns="http://www.w3.org/2000/svg" xmlns:xlink="http://www.w3.org/1999/xlink" x="0px" y="0px"
	 viewBox="0 0 200 200" style="enable-background:new 0 0 200 200;" xml:space="preserve">
<style type="text/css">
	.st0{opacity:0.19;}
	.st1{opacity:0.43;}
</style>
<g id="XMLID_1_">
	<g id="XMLID_179_" class="st0">
		<path id="XMLID_180_" d="M89.3,155.5c-1.2-3.5-2-8.6-2.4-15.5c-4.3,5.6-9.8,9.9-16.5,13c-6.7,3-13.7,4.6-21.2,4.6
			c-10.7,0-19.3-3-25.9-8.9c-6.6-5.9-9.9-13.5-9.9-22.6c0-10.8,4.5-19.4,13.5-25.6c9-6.3,21.5-9.4,37.6-9.4h22.3V78.4
			c0-7.9-2.4-14.2-7.3-18.7c-4.9-4.5-12-6.8-21.4-6.8c-8.5,0-15.6,2.2-21.2,6.6c-5.6,4.4-8.4,9.6-8.4,15.8l-12.3-0.1
			c0-8.8,4.1-16.5,12.3-22.9s18.3-9.7,30.3-9.7c12.4,0,22.1,3.1,29.3,9.3c7.1,6.2,10.8,14.8,11,25.9v52.5c0,10.7,1.1,18.8,3.4,24.1
			v1.2H89.3z M50.8,146.7c8.2,0,15.5-2,22-5.9c6.5-4,11.2-9.3,14.1-15.9v-24.4h-22c-12.2,0.1-21.8,2.4-28.7,6.7
			c-6.9,4.3-10.4,10.3-10.4,17.9c0,6.2,2.3,11.4,6.9,15.5C37.4,144.6,43.4,146.7,50.8,146.7z"/>
	</g>
	<g id="XMLID_175_" class="st1">
		<path id="XMLID_176_" d="M123.9,155.5c-1.2-3.5-2-8.6-2.4-15.5c-4.3,5.6-9.8,9.9-16.5,13c-6.7,3-13.7,4.6-21.2,4.6
			c-10.7,0-19.3-3-25.9-8.9c-6.6-5.9-9.9-13.5-9.9-22.6c0-10.8,4.5-19.4,13.5-25.6c9-6.3,21.5-9.4,37.6-9.4h22.3V78.4
			c0-7.9-2.4-14.2-7.3-18.7c-4.9-4.5-12-6.8-21.4-6.8c-8.5,0-15.6,2.2-21.2,6.6c-5.6,4.4-8.4,9.6-8.4,15.8l-12.3-0.1
			c0-8.8,4.1-16.5,12.3-22.9s18.3-9.7,30.3-9.7c12.4,0,22.1,3.1,29.3,9.3c7.1,6.2,10.8,14.8,11,25.9v52.5c0,10.7,1.1,18.8,3.4,24.1
			v1.2H123.9z M85.4,146.7c8.2,0,15.5-2,22-5.9c6.5-4,11.2-9.3,14.1-15.9v-24.4h-22c-12.2,0.1-21.8,2.4-28.7,6.7
			c-6.9,4.3-10.4,10.3-10.4,17.9c0,6.2,2.3,11.4,6.9,15.5C72,144.6,78,146.7,85.4,146.7z"/>
	</g>
	<g id="XMLID_159_">
		<path id="XMLID_172_" d="M173.4,155.5c-1.2-3.5-2-8.6-2.4-15.5c-4.3,5.6-9.8,9.9-16.5,13c-6.7,3-13.7,4.6-21.2,4.6
			c-10.7,0-19.3-3-25.9-8.9c-6.6-5.9-9.9-13.5-9.9-22.6c0-10.8,4.5-19.4,13.5-25.6c9-6.3,21.5-9.4,37.6-9.4h22.3V78.4
			c0-7.9-2.4-14.2-7.3-18.7c-4.9-4.5-12-6.8-21.4-6.8c-8.5,0-15.6,2.2-21.2,6.6c-5.6,4.4-8.4,9.6-8.4,15.8l-12.3-0.1
			c0-8.8,4.1-16.5,12.3-22.9s18.3-9.7,30.3-9.7c12.4,0,22.1,3.1,29.3,9.3c7.1,6.2,10.8,14.8,11,25.9v52.5c0,10.7,1.1,18.8,3.4,24.1
			v1.2H173.4z M134.8,146.7c8.2,0,15.5-2,22-5.9c6.5-4,11.2-9.3,14.1-15.9v-24.4h-22c-12.2,0.1-21.8,2.4-28.7,6.7
			c-6.9,4.3-10.4,10.3-10.4,17.9c0,6.2,2.3,11.4,6.9,15.5C121.4,144.6,127.4,146.7,134.8,146.7z"/>
	</g>
</g>
</svg>
