<?xml version="1.0" encoding="utf-8"?>
<!-- Generator: Adobe Illustrator 19.0.0, SVG Export Plug-In . SVG Version: 6.00 Build 0)  -->
<svg version="1.1" id="Capa_1" xmlns="http://www.w3.org/2000/svg" xmlns:xlink="http://www.w3.org/1999/xlink" x="0px" y="0px"
	 viewBox="0 0 237 200" style="enable-background:new 0 0 237 200;" xml:space="preserve">
<g id="XMLID_163_">
	<g id="XMLID_170_">
		
			<rect id="XMLID_171_" x="199.4" y="40.6" transform="matrix(0.7792 0.6267 -0.6267 0.7792 76.9763 -122.4258)" width="25.8" height="15"/>
	</g>
	<g id="XMLID_168_">
		
			<rect id="XMLID_169_" x="162.4" y="45.3" transform="matrix(0.7792 0.6267 -0.6267 0.7792 98.4991 -87.3664)" width="21.7" height="101.6"/>
	</g>
	<g id="XMLID_166_">
		<polygon id="XMLID_167_" points="147.9,144.5 131,130.9 132.7,146.1 		"/>
	</g>
	<g id="XMLID_164_">
		<path id="XMLID_165_" d="M101.8,149.8l-20-25.2l-19.2,24.2L33.8,118c-8.3,12.4-19.7,29.9-20.4,31.4l-1.6-0.3H9.4
			c0-2,0-1.7,22.4-35l1.5-2.4l29.1,31L81.8,118l18.6,23.5l8.2-22.8l24.4,28l-3.1,2.7l-19.7-22.7L101.8,149.8z"/>
	</g>
</g>
<polygon id="XMLID_14_" points="61,61.9 64.6,73 76.3,73 66.8,79.9 70.4,91 61,84.1 51.6,91 55.2,79.9 45.7,73 57.4,73 "/>
<polygon id="XMLID_16_" points="135,20.9 138.6,32 150.3,32 140.8,38.9 144.4,50 135,43.1 125.6,50 129.2,38.9 119.7,32 131.4,32 
	"/>
<polygon id="XMLID_17_" points="120,76.9 123.6,88 135.3,88 125.8,94.9 129.4,106 120,99.1 110.6,106 114.2,94.9 104.7,88 116.4,88 
	"/>
</svg>
